<?xml version="1.0" encoding="utf-8"?>
<!-- Generator: Adobe Illustrator 24.1.2, SVG Export Plug-In . SVG Version: 6.00 Build 0)  -->
<svg version="1.1" id="Слой_1" xmlns="http://www.w3.org/2000/svg" xmlns:xlink="http://www.w3.org/1999/xlink" x="0px" y="0px"
	 viewBox="0 0 135 40" style="enable-background:new 0 0 135 40;" xml:space="preserve">
<style type="text/css">
	.st0{fill:#FFFFFF;}
	.st1{fill:none;stroke:#FFFFFF;}
</style>
<path class="st0" d="M81.5,19.2v2.3h-1.4V23h1.4v5.1c0,1.7,0.8,2.4,2.8,2.4c0.3,0,0.7,0,1-0.1V29c-0.2,0-0.4,0-0.7,0
	c-0.9,0-1.3-0.4-1.3-1.4V23h2v-1.5h-2v-2.3H81.5z M90.3,30.7c2.6,0,4.3-1.8,4.3-4.7c0-2.9-1.6-4.7-4.3-4.7c-2.6,0-4.3,1.8-4.3,4.7
	C86.1,28.9,87.7,30.7,90.3,30.7z M90.3,29.1c-1.6,0-2.4-1.1-2.4-3.1c0-2,0.9-3.1,2.4-3.1c1.5,0,2.4,1.1,2.4,3.1
	C92.7,27.9,91.9,29.1,90.3,29.1z M96,30.5h1.8v-5.3c0-1.3,1-2.1,2.3-2.1c0.3,0,0.8,0.1,1,0.1v-1.8c-0.2,0-0.5-0.1-0.8-0.1
	c-1.2,0-2.2,0.6-2.4,1.5h-0.1v-1.4H96C96,21.5,96,30.5,96,30.5z M105.5,22.8c1.3,0,2.2,0.9,2.2,2.3h-4.6
	C103.2,23.7,104.2,22.8,105.5,22.8z M107.7,28c-0.3,0.7-1.1,1.1-2.2,1.1c-1.4,0-2.3-1-2.4-2.6v-0.1h6.4v-0.6c0-2.8-1.5-4.6-4-4.6
	c-2.5,0-4.2,1.8-4.2,4.7s1.6,4.7,4.2,4.7c2.1,0,3.5-1,3.9-2.6C109.4,28,107.7,28,107.7,28z M69.8,27.2c0.1,2.2,2,3.6,4.7,3.6
	c2.9,0,4.8-1.5,4.8-3.9c0-1.9-1.1-2.9-3.6-3.5l-1.4-0.3c-1.6-0.4-2.3-0.9-2.3-1.8c0-1.1,1-1.9,2.5-1.9c1.4,0,2.4,0.7,2.6,1.9h1.9
	c-0.1-2.1-2-3.6-4.5-3.6c-2.7,0-4.5,1.5-4.5,3.7c0,1.8,1,2.9,3.3,3.4l1.6,0.4c1.6,0.4,2.4,1,2.4,1.9c0,1.1-1.1,1.9-2.7,1.9
	c-1.7,0-2.8-0.7-3-1.9C71.7,27.2,69.8,27.2,69.8,27.2z M51.3,21.3c-1.2,0-2.3,0.6-2.8,1.6h-0.1v-1.5h-1.7v12h1.8v-4.4h0.1
	c0.5,1,1.5,1.5,2.8,1.5c2.3,0,3.7-1.8,3.7-4.7S53.6,21.3,51.3,21.3z M50.8,29c-1.5,0-2.4-1.2-2.4-3.1c0-1.9,0.9-3.1,2.4-3.1
	c1.5,0,2.4,1.2,2.4,3.1C53.3,27.9,52.3,29,50.8,29z M61.3,21.3c-1.2,0-2.3,0.6-2.8,1.6h-0.1v-1.5h-1.7v12h1.8v-4.4h0.1
	c0.5,1,1.5,1.5,2.8,1.5c2.3,0,3.7-1.8,3.7-4.7S63.6,21.3,61.3,21.3z M60.8,29c-1.5,0-2.4-1.2-2.4-3.1c0-1.9,0.9-3.1,2.4-3.1
	c1.5,0,2.4,1.2,2.4,3.1C63.2,27.9,62.3,29,60.8,29z M43.4,30.5h2L41,18.1h-2.1l-4.5,12.4h2l1.1-3.3h4.7L43.4,30.5z M39.9,20.3H40
	l1.8,5.2h-3.8L39.9,20.3L39.9,20.3z M35.7,8.7v6h2.2c1.8,0,2.8-1.1,2.8-3c0-1.9-1-3-2.8-3L35.7,8.7L35.7,8.7z M36.6,9.6h1.1
	c1.2,0,2,0.8,2,2.1c0,1.4-0.7,2.2-2,2.2h-1.1V9.6z M43.8,14.8c1.3,0,2.1-0.9,2.1-2.3c0-1.5-0.8-2.3-2.1-2.3c-1.3,0-2.1,0.9-2.1,2.3
	C41.7,13.9,42.5,14.8,43.8,14.8L43.8,14.8z M43.8,14c-0.8,0-1.2-0.6-1.2-1.6c0-1,0.4-1.6,1.2-1.6c0.8,0,1.2,0.6,1.2,1.6
	C45,13.4,44.6,14,43.8,14z M52.8,10.2h-0.9l-0.8,3.4h-0.1l-0.9-3.4h-0.9l-0.9,3.4h-0.1l-0.8-3.4h-0.9l1.2,4.5h0.9l0.9-3.3h0.1
	l0.9,3.3h0.9L52.8,10.2z M53.8,14.7h0.9v-2.6c0-0.7,0.4-1.1,1.1-1.1c0.7,0,1,0.4,1,1.1v2.7h0.9v-2.9c0-1.1-0.6-1.7-1.6-1.7
	c-0.7,0-1.1,0.3-1.3,0.8h-0.1v-0.7h-0.9L53.8,14.7L53.8,14.7z M59.1,14.7H60V8.4h-0.9V14.7z M63.3,14.8c1.3,0,2.1-0.9,2.1-2.3
	c0-1.5-0.8-2.3-2.1-2.3c-1.3,0-2.1,0.9-2.1,2.3C61.2,13.9,62,14.8,63.3,14.8L63.3,14.8z M63.3,14c-0.8,0-1.2-0.6-1.2-1.6
	c0-1,0.4-1.6,1.2-1.6c0.8,0,1.2,0.6,1.2,1.6C64.6,13.4,64.1,14,63.3,14z M68.1,14c-0.5,0-0.8-0.2-0.8-0.6c0-0.4,0.3-0.6,0.9-0.7
	l1.1-0.1V13C69.3,13.6,68.8,14,68.1,14L68.1,14z M67.9,14.8c0.6,0,1.1-0.3,1.4-0.7h0.1v0.6h0.9v-3.1c0-1-0.6-1.5-1.8-1.5
	c-1,0-1.8,0.5-1.8,1.3h0.9c0.1-0.3,0.4-0.5,0.9-0.5c0.6,0,0.9,0.3,0.9,0.7V12l-1.2,0.1c-1.1,0.1-1.7,0.5-1.7,1.4
	C66.4,14.2,67,14.8,67.9,14.8z M73.2,14.8c0.6,0,1.2-0.3,1.4-0.8h0.1v0.7h0.9V8.4h-0.9v2.5h-0.1c-0.2-0.5-0.8-0.8-1.4-0.8
	c-1.1,0-1.9,0.9-1.9,2.3C71.3,13.9,72.1,14.8,73.2,14.8z M73.5,10.9c0.7,0,1.2,0.6,1.2,1.5c0,0.9-0.5,1.5-1.2,1.5
	c-0.8,0-1.2-0.6-1.2-1.5C72.3,11.5,72.7,10.9,73.5,10.9z M81.3,14.8c1.3,0,2.1-0.9,2.1-2.3c0-1.5-0.8-2.3-2.1-2.3
	c-1.3,0-2.1,0.9-2.1,2.3C79.2,13.9,80,14.8,81.3,14.8L81.3,14.8z M81.3,14c-0.8,0-1.2-0.6-1.2-1.6c0-1,0.4-1.6,1.2-1.6
	c0.8,0,1.2,0.6,1.2,1.6C82.6,13.4,82.1,14,81.3,14z M84.7,14.7h0.9v-2.6c0-0.7,0.4-1.1,1.1-1.1s1,0.4,1,1.1v2.7h0.9v-2.9
	c0-1.1-0.6-1.7-1.6-1.7c-0.7,0-1.1,0.3-1.3,0.8h-0.1v-0.7h-0.9C84.7,10.2,84.7,14.7,84.7,14.7z M92.6,9.1v1.1h-0.7V11h0.7v2.6
	c0,0.9,0.4,1.2,1.4,1.2c0.2,0,0.3,0,0.5,0v-0.7c-0.1,0-0.2,0-0.3,0c-0.4,0-0.6-0.2-0.6-0.7V11h1v-0.8h-1V9.1
	C93.5,9.1,92.6,9.1,92.6,9.1z M95.7,14.7h0.9v-2.6c0-0.7,0.4-1.1,1.1-1.1c0.6,0,1,0.4,1,1.1v2.7h0.9v-2.9c0-1.1-0.6-1.7-1.6-1.7
	c-0.7,0-1.2,0.3-1.4,0.8h-0.1V8.4h-0.9L95.7,14.7L95.7,14.7z M102.8,10.9c0.7,0,1.1,0.5,1.1,1.2h-2.3
	C101.7,11.3,102.1,10.9,102.8,10.9z M103.9,13.5c-0.2,0.4-0.5,0.5-1.1,0.5c-0.7,0-1.2-0.5-1.2-1.3v-0.1h3.2v-0.3
	c0-1.4-0.8-2.3-2-2.3c-1.3,0-2.1,0.9-2.1,2.4c0,1.4,0.8,2.3,2.1,2.3c1,0,1.8-0.5,2-1.3C104.7,13.5,103.9,13.5,103.9,13.5z
	 M24.8,20.3c0-1.7,0.9-3.3,2.4-4.2c-0.9-1.3-2.4-2.1-4-2.2c-1.7-0.2-3.3,1-4.2,1c-0.9,0-2.2-1-3.6-1c-1.9,0.1-3.6,1.1-4.5,2.7
	c-1.9,3.3-0.5,8.3,1.4,11c0.9,1.3,2,2.8,3.4,2.8c1.4-0.1,1.9-0.9,3.6-0.9c1.7,0,2.1,0.9,3.6,0.9c1.5,0,2.4-1.3,3.3-2.7
	c0.7-0.9,1.2-2,1.5-3.1C25.9,23.9,24.8,22.2,24.8,20.3z M22,12.2c0.8-1,1.2-2.2,1.1-3.5c-1.2,0.1-2.4,0.7-3.2,1.7
	c-0.8,0.9-1.2,2.1-1.1,3.4C20.1,13.7,21.2,13.2,22,12.2z"/>
<path class="st1" d="M7.3,1.4h120.3c3.6,0,6.5,2.8,6.5,6.3v25.1c0,3.5-2.9,6.3-6.5,6.3H7.3c-3.6,0-6.5-2.8-6.5-6.3V7.7
	C0.8,4.2,3.7,1.4,7.3,1.4z"/>
</svg>
